<svg width="80" height="81" viewBox="0 0 80 81" fill="none" xmlns="http://www.w3.org/2000/svg">
<path d="M13.3337 17.1663H20.0003V27.1663H53.3337V17.1663H60.0003V33.833H66.667V17.1663C66.667 13.4997 63.667 10.4997 60.0003 10.4997H46.067C44.667 6.63301 41.0003 3.83301 36.667 3.83301C32.3337 3.83301 28.667 6.63301 27.267 10.4997H13.3337C9.66699 10.4997 6.66699 13.4997 6.66699 17.1663V63.833C6.66699 67.4997 9.66699 70.4997 13.3337 70.4997H30.0003V63.833H13.3337V17.1663ZM36.667 10.4997C38.5003 10.4997 40.0003 11.9997 40.0003 13.833C40.0003 15.6663 38.5003 17.1663 36.667 17.1663C34.8337 17.1663 33.3337 15.6663 33.3337 13.833C33.3337 11.9997 34.8337 10.4997 36.667 10.4997Z" fill="#41349D"/>
<path d="M64.3337 63.4997C65.667 61.1663 66.667 58.4997 66.667 55.4997C66.667 47.1663 60.0003 40.4997 51.667 40.4997C43.3337 40.4997 36.667 47.1663 36.667 55.4997C36.667 63.833 43.3337 70.4997 51.667 70.4997C54.667 70.4997 57.3337 69.4997 59.667 68.1663L68.667 77.1663L73.3337 72.4997L64.3337 63.4997ZM51.667 63.833C47.0003 63.833 43.3337 60.1663 43.3337 55.4997C43.3337 50.833 47.0003 47.1663 51.667 47.1663C56.3337 47.1663 60.0003 50.833 60.0003 55.4997C60.0003 60.1663 56.3337 63.833 51.667 63.833Z" fill="#41349D"/>
</svg>
