<svg width="80" height="81" viewBox="0 0 80 81" fill="none" xmlns="http://www.w3.org/2000/svg">
<path d="M73.3333 30.4997V23.833H66.6667V30.4997H60V37.1663H66.6667V43.833H73.3333V37.1663H80V30.4997H73.3333Z" fill="#41349D"/>
<path d="M26.6667 40.4997C34.0333 40.4997 40 34.533 40 27.1663C40 19.7997 34.0333 13.833 26.6667 13.833C19.3 13.833 13.3333 19.7997 13.3333 27.1663C13.3333 34.533 19.3 40.4997 26.6667 40.4997ZM26.6667 20.4997C30.3333 20.4997 33.3333 23.4997 33.3333 27.1663C33.3333 30.833 30.3333 33.833 26.6667 33.833C23 33.833 20 30.833 20 27.1663C20 23.4997 23 20.4997 26.6667 20.4997Z" fill="#41349D"/>
<path d="M26.6667 43.833C17.7667 43.833 0 48.2997 0 57.1663V67.1663H53.3333V57.1663C53.3333 48.2997 35.5667 43.833 26.6667 43.833ZM46.6667 60.4997H6.66667V57.1997C7.33333 54.7997 17.6667 50.4997 26.6667 50.4997C35.6667 50.4997 46 54.7997 46.6667 57.1663V60.4997Z" fill="#41349D"/>
<path d="M41.7 13.9997C44.7667 17.533 46.6667 22.133 46.6667 27.1663C46.6667 32.1997 44.7667 36.7997 41.7 40.333C48.2333 39.4997 53.3333 33.9663 53.3333 27.1663C53.3333 20.3663 48.2333 14.833 41.7 13.9997Z" fill="#41349D"/>
<path d="M55.1 46.5997C58.0667 49.3663 60 52.833 60 57.1663V67.1663H66.6667V57.1663C66.6667 52.333 61.3667 48.7997 55.1 46.5997Z" fill="#41349D"/>
</svg>
