<svg width="122" height="50" viewBox="0 0 122 50" fill="none" xmlns="http://www.w3.org/2000/svg">
<path d="M62.7854 9.008H57.6734L57.5294 13.424H62.1134L61.8494 15.968H57.4574L57.4334 16.76L57.7214 23H54.3614L54.6494 17.168L54.3614 6.44H63.0494L62.7854 9.008ZM67.3306 23C66.4666 23 65.7626 22.72 65.2186 22.16C64.6906 21.584 64.4266 20.832 64.4266 19.904L64.5706 17.144L64.3066 11.384L67.5226 10.784L67.2106 18.08C67.2106 18.768 67.3306 19.272 67.5706 19.592C67.8266 19.912 68.2266 20.072 68.7706 20.072C69.3146 20.072 70.0666 19.8 71.0266 19.256V17.816L70.7626 11.504L74.0026 10.904L73.7146 16.904L73.7386 18.872C73.7386 19.896 74.0026 20.928 74.5306 21.968L72.0346 23.072C71.5066 22.032 71.1866 21.2 71.0746 20.576C69.6346 22.192 68.3866 23 67.3306 23ZM76.421 11.408L79.325 10.784C79.469 12.016 79.565 13.184 79.613 14.288C81.069 12.032 82.437 10.904 83.717 10.904L83.453 14.648C82.525 14.648 81.789 14.736 81.245 14.912C80.717 15.072 80.173 15.4 79.613 15.896V16.76L79.877 22.4L76.661 23L76.949 17.168C76.885 15.024 76.709 13.104 76.421 11.408ZM84.9757 11.408L87.8797 10.784C88.0237 12.016 88.1197 13.184 88.1677 14.288C89.6237 12.032 90.9917 10.904 92.2717 10.904L92.0077 14.648C91.0797 14.648 90.3437 14.736 89.7997 14.912C89.2717 15.072 88.7277 15.4 88.1677 15.896V16.76L88.4317 22.4L85.2157 23L85.5037 17.168C85.4397 15.024 85.2637 13.104 84.9757 11.408ZM94.1303 27.632L96.6023 22.088L94.8263 17.24L92.4023 11.408L95.5943 10.808L97.1303 15.92L97.9223 18.344H98.2343L98.8103 16.592L100.538 10.784L103.49 11.144L99.2423 22.304L97.2263 28.28L94.1303 27.632Z" fill="#675BC8"/>
<path d="M62.4456 29.008H57.3336L57.1896 33.424H61.7736L61.5096 35.968H57.1176L57.0936 36.76L57.3816 43H54.0216L54.3096 37.168L54.0216 26.44H62.7096L62.4456 29.008ZM63.8468 31.408L66.7508 30.784C66.8948 32.016 66.9908 33.184 67.0388 34.288C68.4948 32.032 69.8628 30.904 71.1428 30.904L70.8788 34.648C69.9508 34.648 69.2148 34.736 68.6708 34.912C68.1428 35.072 67.5988 35.4 67.0388 35.896V36.76L67.3028 42.4L64.0868 43L64.3748 37.168C64.3108 35.024 64.1348 33.104 63.8468 31.408ZM75.8814 30.784L75.5934 36.76L75.8574 42.4L72.6414 43L72.9294 37.168L72.6654 31.384L75.8814 30.784ZM72.4974 27.28C72.4974 26.736 72.7054 26.256 73.1214 25.84C73.5374 25.408 74.0174 25.192 74.5614 25.192C75.1054 25.192 75.5214 25.344 75.8094 25.648C76.0974 25.936 76.2414 26.376 76.2414 26.968C76.2414 27.56 76.0334 28.072 75.6174 28.504C75.2174 28.92 74.7454 29.128 74.2014 29.128C73.6734 29.128 73.2574 28.952 72.9534 28.6C72.6494 28.248 72.4974 27.808 72.4974 27.28ZM82.8448 40.552C83.3088 40.552 83.7968 40.432 84.3088 40.192C84.8208 39.952 85.2208 39.712 85.5088 39.472L85.9408 39.112L87.0448 40.456C86.8848 40.728 86.6368 41.04 86.3008 41.392C85.9648 41.744 85.6208 42.048 85.2688 42.304C84.9328 42.544 84.4768 42.768 83.9008 42.976C83.3408 43.168 82.7568 43.264 82.1488 43.264C80.8528 43.264 79.7968 42.776 78.9808 41.8C78.1648 40.808 77.7568 39.536 77.7568 37.984C77.7568 36.032 78.3248 34.32 79.4608 32.848C80.5968 31.376 81.9248 30.64 83.4448 30.64C84.6128 30.64 85.5168 30.968 86.1568 31.624C86.8128 32.28 87.1408 33.2 87.1408 34.384C87.1408 35.088 87.0208 35.888 86.7808 36.784L86.3008 37.288L80.3008 37.84C80.5728 39.648 81.4208 40.552 82.8448 40.552ZM82.8448 33.112C82.1408 33.112 81.5488 33.4 81.0688 33.976C80.5888 34.536 80.3088 35.256 80.2288 36.136L84.3088 35.632C84.3568 35.264 84.3808 34.96 84.3808 34.72C84.3808 33.648 83.8688 33.112 82.8448 33.112ZM96.1958 36.928C96.1958 35.824 96.0998 35.088 95.9078 34.72C95.7158 34.352 95.2678 34.168 94.5638 34.168C93.8598 34.168 93.0598 34.448 92.1638 35.008V36.76L92.4278 42.4L89.2118 43L89.4998 37.168C89.4358 35.024 89.2598 33.104 88.9718 31.408L91.8758 30.784C91.9878 31.712 92.0678 32.616 92.1158 33.496C92.3558 33.176 92.6278 32.864 92.9318 32.56C93.2358 32.24 93.7158 31.888 94.3718 31.504C95.0278 31.104 95.7158 30.904 96.4358 30.904C97.1718 30.904 97.7878 31.192 98.2838 31.768C98.7798 32.328 99.0278 33.096 99.0278 34.072L98.8838 36.76L99.1478 42.52L95.9078 43.12L96.1958 36.928ZM108.134 40.648C106.886 42.216 105.806 43 104.894 43C103.758 43 102.822 42.536 102.086 41.608C101.366 40.68 101.006 39.488 101.006 38.032C101.006 36.032 101.558 34.344 102.662 32.968C103.782 31.592 105.15 30.904 106.766 30.904L108.11 31.096V30.64L107.822 25.024L111.11 24.424L110.798 36.76V38.872C110.798 39.832 111.038 40.936 111.518 42.184L108.926 43.264C108.462 42.304 108.198 41.432 108.134 40.648ZM103.694 36.784C103.694 37.808 103.878 38.608 104.246 39.184C104.63 39.76 105.174 40.048 105.878 40.048C106.598 40.048 107.342 39.76 108.11 39.184V34C107.15 33.808 106.438 33.712 105.974 33.712C105.254 33.712 104.694 33.968 104.294 34.48C103.894 34.992 103.694 35.76 103.694 36.784ZM117.469 40.768C118.301 40.768 118.717 40.4 118.717 39.664C118.717 39.408 118.533 39.168 118.165 38.944C117.813 38.72 117.373 38.496 116.845 38.272C116.333 38.048 115.813 37.8 115.285 37.528C114.773 37.24 114.333 36.848 113.965 36.352C113.613 35.856 113.437 35.288 113.437 34.648C113.437 33.576 113.909 32.64 114.853 31.84C115.797 31.04 116.885 30.64 118.117 30.64C118.693 30.64 119.253 30.712 119.797 30.856C120.357 30.984 120.893 31.192 121.405 31.48L119.797 34.408C119.685 34.312 119.541 34.192 119.365 34.048C119.189 33.904 118.853 33.72 118.357 33.496C117.877 33.256 117.445 33.136 117.061 33.136C116.693 33.136 116.405 33.224 116.197 33.4C116.005 33.56 115.909 33.792 115.909 34.096C115.909 34.384 116.181 34.68 116.725 34.984C117.285 35.272 117.893 35.544 118.549 35.8C119.205 36.04 119.805 36.448 120.349 37.024C120.909 37.584 121.189 38.256 121.189 39.04C121.189 40.16 120.725 41.144 119.797 41.992C118.885 42.84 117.829 43.264 116.629 43.264C115.861 43.264 115.141 43.096 114.469 42.76C113.813 42.424 113.341 42.088 113.053 41.752L112.621 41.248L114.517 39.04C114.613 39.168 114.749 39.328 114.925 39.52C115.101 39.712 115.445 39.968 115.957 40.288C116.485 40.608 116.989 40.768 117.469 40.768Z" fill="#2E256F"/>
<path d="M2 13.7976L21.9952 2.79369C22.8935 2.29933 23.982 2.29799 24.8816 2.79015L45 13.7976" stroke="#675BC8" stroke-width="2.5" stroke-linecap="round"/>
<path d="M40.4805 27.7625C40.4805 36.6972 32.9687 43.9995 23.628 43.9995C14.2872 43.9995 6.77539 36.6972 6.77539 27.7625C6.77539 18.8278 14.2872 11.5254 23.628 11.5254C32.9687 11.5254 40.4805 18.8278 40.4805 27.7625Z" fill="#2E256F" stroke="#675BC8" stroke-width="2"/>
<path d="M25.9899 20.7512L25.868 20.5853L23.8012 17.7744C23.8012 17.7744 23.8011 17.7743 23.8011 17.7743C23.696 17.6316 23.5541 17.5118 23.3854 17.4271C23.2166 17.3424 23.0271 17.296 22.8329 17.2932C22.8328 17.2932 22.8327 17.2932 22.8327 17.2932L18.9138 17.2402H18.9091C16.9189 17.2402 15.6038 17.5578 14.7498 18.8862L14.7497 18.8862C13.907 20.1967 13.5 22.5226 13.5 26.8684V26.8982H14.2858H14.9007L14.7753 27.5002L14.073 30.8722H14.1985L14.9433 27.2963L15.0262 26.8982H15.4328H15.8138H15.818V26.8983C16.6152 26.905 17.3778 26.6159 17.9423 26.1016L17.9444 26.0998L17.9444 26.0998C18.4612 25.6342 18.8444 24.9877 19.0403 24.2192L19.0404 24.2188L19.8691 20.4802H19.7436L18.9167 24.211L18.9148 24.2192L18.9127 24.2273C18.6041 25.4276 17.6376 26.8385 15.8138 26.8385H14.1276H13.6236L13.6277 26.3345C13.643 24.4469 13.7419 22.9248 13.9386 21.7144C14.1345 20.509 14.4328 19.5762 14.8715 18.894C15.2486 18.3074 15.7293 17.893 16.4072 17.637C17.062 17.3897 17.8755 17.3 18.905 17.2998L18.9119 17.2998L18.9119 17.2998L22.8305 17.3528L22.8309 17.3528C22.9949 17.3552 23.1573 17.3943 23.3047 17.4683L23.0803 17.9151L23.3047 17.4683C23.4521 17.5423 23.5818 17.6499 23.6809 17.7844L23.6812 17.7848L25.8974 20.7987L28.835 21.2597L29.2575 21.326V21.7537V22.3153V22.3646L29.2479 22.413L28.7241 25.0431L28.7241 25.0431L28.2337 24.9454C28.0791 25.7217 27.8149 26.1128 26.7312 26.2353L25.9899 20.7512ZM25.9899 20.7512L26.1933 20.7831L29.3831 21.2836V22.3645L28.8497 25.0431C28.7359 25.6144 28.5591 25.9484 28.3031 26.1999C28.0012 26.4963 27.5405 26.7061 26.8223 26.7892L26.8113 26.7905L26.8003 26.7923L23.3287 27.3519L22.9111 27.4192L22.9083 27.8422L22.8881 30.8722H22.7626L22.7858 27.3773L26.7994 26.7308L25.9899 20.7512Z" fill="white" stroke="white"/>
<mask id="path-6-inside-1_15011_12637" fill="white">
<path d="M28.1146 29.6659C28.1913 29.4117 28.3369 29.191 28.531 29.0347C28.7251 28.8785 28.9578 28.7947 29.1964 28.7951H30.1128V25.7441L30.4979 25.806C31.3714 25.9464 32.0519 26.4445 32.5202 27.2864C32.8578 27.8932 33.0147 28.5627 33.0876 29.0634C33.5904 29.4986 34.0279 30.0979 34.3894 30.8473C34.6941 31.4788 34.9463 32.2189 35.1391 33.0472C35.4648 34.4466 35.5089 35.6074 35.5106 35.6561L35.5107 36.9995H34.8361V35.6797C34.8277 35.4844 34.6152 31.2114 32.5792 29.5843L32.4598 29.4889L32.4402 29.3257C32.3387 28.4806 31.9878 27.0846 30.7875 26.6556V29.5543H29.1964C29.0988 29.5539 29.0037 29.588 28.9242 29.6517C28.8448 29.7155 28.7851 29.8056 28.7536 29.9095C28.4846 30.8028 28.0224 31.9207 27.302 32.446L27.5187 33.36C27.5941 33.6859 27.7656 33.9734 28.0052 34.1754C28.2447 34.3774 28.5382 34.482 28.8374 34.4719C29.4419 34.4515 30.0711 34.5402 30.7075 34.7355L30.9562 34.8117V36.9995H30.2814V35.3974C29.8152 35.2735 29.3367 35.2175 28.8577 35.2307C28.4066 35.2447 27.9646 35.0868 27.6032 34.7828C27.2418 34.4788 26.9823 34.0463 26.8668 33.5556L26.5064 32.0354L26.7748 31.906C27.2766 31.664 27.7524 30.8685 28.1146 29.6659Z"/>
</mask>
<path d="M28.1146 29.6659C28.1913 29.4117 28.3369 29.191 28.531 29.0347C28.7251 28.8785 28.9578 28.7947 29.1964 28.7951H30.1128V25.7441L30.4979 25.806C31.3714 25.9464 32.0519 26.4445 32.5202 27.2864C32.8578 27.8932 33.0147 28.5627 33.0876 29.0634C33.5904 29.4986 34.0279 30.0979 34.3894 30.8473C34.6941 31.4788 34.9463 32.2189 35.1391 33.0472C35.4648 34.4466 35.5089 35.6074 35.5106 35.6561L35.5107 36.9995H34.8361V35.6797C34.8277 35.4844 34.6152 31.2114 32.5792 29.5843L32.4598 29.4889L32.4402 29.3257C32.3387 28.4806 31.9878 27.0846 30.7875 26.6556V29.5543H29.1964C29.0988 29.5539 29.0037 29.588 28.9242 29.6517C28.8448 29.7155 28.7851 29.8056 28.7536 29.9095C28.4846 30.8028 28.0224 31.9207 27.302 32.446L27.5187 33.36C27.5941 33.6859 27.7656 33.9734 28.0052 34.1754C28.2447 34.3774 28.5382 34.482 28.8374 34.4719C29.4419 34.4515 30.0711 34.5402 30.7075 34.7355L30.9562 34.8117V36.9995H30.2814V35.3974C29.8152 35.2735 29.3367 35.2175 28.8577 35.2307C28.4066 35.2447 27.9646 35.0868 27.6032 34.7828C27.2418 34.4788 26.9823 34.0463 26.8668 33.5556L26.5064 32.0354L26.7748 31.906C27.2766 31.664 27.7524 30.8685 28.1146 29.6659Z" fill="white"/>
<path d="M28.1146 29.6659L27.157 29.3776L27.1572 29.377L28.1146 29.6659ZM29.1964 28.7951V29.7951L29.1948 29.7951L29.1964 28.7951ZM30.1128 28.7951H31.1128V29.7951H30.1128V28.7951ZM30.1128 25.7441H29.1128V24.5706L30.2714 24.7568L30.1128 25.7441ZM30.4979 25.806L30.3392 26.7934L30.3392 26.7934L30.4979 25.806ZM32.5202 27.2864L31.6463 27.7725L31.6463 27.7724L32.5202 27.2864ZM33.0876 29.0634L32.4331 29.8194L32.1516 29.5758L32.098 29.2073L33.0876 29.0634ZM34.3894 30.8473L33.4887 31.2819L33.4887 31.2818L34.3894 30.8473ZM35.1391 33.0472L34.1651 33.2738L34.1651 33.2738L35.1391 33.0472ZM35.5106 35.6561L36.51 35.6211L36.5106 35.6385L36.5106 35.656L35.5106 35.6561ZM35.5107 36.9995L36.5107 36.9994L36.5109 37.9995H35.5107V36.9995ZM34.8361 36.9995V37.9995H33.8361V36.9995H34.8361ZM34.8361 35.6797L35.8352 35.6365L35.8361 35.6581V35.6797H34.8361ZM32.5792 29.5843L31.9549 30.3655L31.9548 30.3655L32.5792 29.5843ZM32.4598 29.4889L31.8355 30.2701L31.5158 30.0146L31.467 29.6082L32.4598 29.4889ZM32.4402 29.3257L33.4331 29.2064L33.4331 29.2064L32.4402 29.3257ZM30.7875 26.6556H29.7875V25.2361L31.1241 25.7139L30.7875 26.6556ZM30.7875 29.5543H31.7875V30.5543H30.7875V29.5543ZM29.1964 29.5543V30.5543L29.193 30.5543L29.1964 29.5543ZM28.7536 29.9095L27.7961 29.6212L27.7967 29.6191L28.7536 29.9095ZM27.302 32.446L26.329 32.6766L26.1757 32.0297L26.7128 31.638L27.302 32.446ZM27.5187 33.36L28.4917 33.1294L28.4929 33.1346L27.5187 33.36ZM28.8374 34.4719L28.8711 35.4713L28.871 35.4713L28.8374 34.4719ZM30.7075 34.7355L30.4143 35.6915L30.4142 35.6915L30.7075 34.7355ZM30.9562 34.8117L31.2494 33.8557L31.9562 34.0725V34.8117H30.9562ZM30.9562 36.9995H31.9562V37.9995H30.9562V36.9995ZM30.2814 36.9995V37.9995H29.2814V36.9995H30.2814ZM30.2814 35.3974L30.5383 34.431L31.2814 34.6285V35.3974H30.2814ZM28.8577 35.2307L28.8267 34.2311L28.8301 34.2311L28.8577 35.2307ZM26.8668 33.5556L27.8398 33.325L27.8401 33.3263L26.8668 33.5556ZM26.5064 32.0354L25.5334 32.266L25.348 31.4838L26.0721 31.1346L26.5064 32.0354ZM26.7748 31.906L27.2091 32.8068L27.2091 32.8068L26.7748 31.906ZM27.1572 29.377C27.2881 28.9432 27.5424 28.5468 27.904 28.2558L29.158 29.8137C29.1315 29.8351 29.0945 29.8801 29.0719 29.9548L27.1572 29.377ZM27.904 28.2558C28.2677 27.963 28.7201 27.7944 29.198 27.7951L29.1948 29.7951C29.1937 29.7951 29.1909 29.7952 29.1858 29.7971C29.1806 29.799 29.1708 29.8034 29.158 29.8137L27.904 28.2558ZM29.1964 27.7951H30.1128V29.7951H29.1964V27.7951ZM29.1128 28.7951V25.7441H31.1128V28.7951H29.1128ZM30.2714 24.7568L30.6565 24.8187L30.3392 26.7934L29.9541 26.7315L30.2714 24.7568ZM30.6565 24.8187C31.8622 25.0125 32.792 25.7177 33.3941 26.8003L31.6463 27.7724C31.3118 27.1712 30.8806 26.8804 30.3392 26.7934L30.6565 24.8187ZM33.394 26.8002C33.8132 27.5537 33.9951 28.3551 34.0772 28.9194L32.098 29.2073C32.0344 28.7702 31.9023 28.2327 31.6463 27.7725L33.394 26.8002ZM33.742 28.3073C34.3704 28.8511 34.8836 29.5703 35.2901 30.4128L33.4887 31.2818C33.1721 30.6256 32.8105 30.1461 32.4331 29.8194L33.742 28.3073ZM35.29 30.4128C35.6327 31.1229 35.9069 31.9351 36.113 32.8205L34.1651 33.2738C33.9856 32.5028 33.7555 31.8347 33.4887 31.2819L35.29 30.4128ZM36.113 32.8205C36.4593 34.3083 36.5071 35.5407 36.51 35.6211L34.5112 35.6911C34.5106 35.6741 34.4702 34.5848 34.1651 33.2738L36.113 32.8205ZM36.5106 35.656L36.5107 36.9994L34.5107 36.9996L34.5106 35.6562L36.5106 35.656ZM35.5107 37.9995H34.8361V35.9995H35.5107V37.9995ZM33.8361 36.9995V35.6797H35.8361V36.9995H33.8361ZM33.837 35.7228C33.8341 35.6554 33.783 34.6091 33.4952 33.4006C33.1948 32.1394 32.6941 30.9563 31.9549 30.3655L33.2035 28.8031C34.5002 29.8395 35.1238 31.6064 35.4408 32.9372C35.7703 34.3208 35.8296 35.5087 35.8352 35.6365L33.837 35.7228ZM31.9548 30.3655L31.8355 30.2701L33.0842 28.7078L33.2035 28.8032L31.9548 30.3655ZM31.467 29.6082L31.4474 29.445L33.4331 29.2064L33.4527 29.3697L31.467 29.6082ZM31.4474 29.445C31.4034 29.0795 31.3096 28.6434 31.1289 28.2766C30.9523 27.9182 30.7312 27.6974 30.4509 27.5972L31.1241 25.7139C32.0441 26.0428 32.5986 26.7345 32.9229 27.3926C33.2431 28.0423 33.3755 28.7268 33.4331 29.2064L31.4474 29.445ZM31.7875 26.6556V29.5543H29.7875V26.6556H31.7875ZM30.7875 30.5543H29.1964V28.5543H30.7875V30.5543ZM29.193 30.5543C29.3348 30.5547 29.4595 30.5044 29.55 30.4318L28.2985 28.8717C28.5478 28.6717 28.8629 28.5531 29.1998 28.5543L29.193 30.5543ZM29.55 30.4318C29.6383 30.3609 29.6876 30.2754 29.7105 30.1998L27.7967 29.6191C27.8826 29.3358 28.0512 29.0701 28.2985 28.8717L29.55 30.4318ZM29.7111 30.1978C29.5659 30.6799 29.3617 31.2474 29.0829 31.7797C28.8106 32.2997 28.428 32.8626 27.8913 33.254L26.7128 31.638C26.8965 31.5041 27.1051 31.2453 27.3112 30.8518C27.5109 30.4704 27.6722 30.0324 27.7961 29.6212L29.7111 30.1978ZM28.2751 32.2154L28.4917 33.1294L26.5456 33.5906L26.329 32.6766L28.2751 32.2154ZM28.4929 33.1346C28.5231 33.2651 28.587 33.358 28.6498 33.4109L27.3606 34.94C26.9442 34.5889 26.665 34.1068 26.5444 33.5854L28.4929 33.1346ZM28.6498 33.4109C28.7098 33.4615 28.7643 33.4738 28.8038 33.4725L28.871 35.4713C28.3121 35.4901 27.7797 35.2933 27.3606 34.94L28.6498 33.4109ZM28.8037 33.4725C29.5295 33.448 30.2692 33.555 31.0008 33.7795L30.4142 35.6915C29.873 35.5254 29.3543 35.455 28.8711 35.4713L28.8037 33.4725ZM31.0008 33.7794L31.2494 33.8557L30.663 35.7678L30.4143 35.6915L31.0008 33.7794ZM31.9562 34.8117V36.9995H29.9562V34.8117H31.9562ZM30.9562 37.9995H30.2814V35.9995H30.9562V37.9995ZM29.2814 36.9995V35.3974H31.2814V36.9995H29.2814ZM30.0246 36.3639C29.6504 36.2644 29.2677 36.2197 28.8853 36.2303L28.8301 34.2311C29.4057 34.2152 29.98 34.2826 30.5383 34.431L30.0246 36.3639ZM28.8887 36.2302C28.1793 36.2522 27.4996 36.0025 26.9594 35.548L28.247 34.0176C28.4296 34.1712 28.634 34.2371 28.8267 34.2312L28.8887 36.2302ZM26.9594 35.548C26.4219 35.0958 26.0548 34.47 25.8934 33.7848L27.8401 33.3263C27.9099 33.6227 28.0618 33.8617 28.247 34.0176L26.9594 35.548ZM25.8937 33.7862L25.5334 32.266L27.4795 31.8048L27.8398 33.325L25.8937 33.7862ZM26.0721 31.1346L26.3405 31.0052L27.2091 32.8068L26.9408 32.9361L26.0721 31.1346ZM26.3405 31.0052C26.3366 31.0071 26.4553 30.9397 26.6389 30.6329C26.8109 30.3453 26.9913 29.928 27.157 29.3776L29.0721 29.9542C28.8757 30.6064 28.6372 31.1881 28.3553 31.6595C28.0849 32.1115 27.7149 32.5629 27.2091 32.8068L26.3405 31.0052Z" fill="white" mask="url(#path-6-inside-1_15011_12637)"/>
</svg>
